<?xml version="1.0" encoding="utf-8"?>
<svg version="1.1" xmlns:xlink="http://www.w3.org/1999/xlink" width="15px" height="13px" xmlns="http://www.w3.org/2000/svg">
  <g transform="matrix(1 0 0 1 -269 -414 )">
    <path d="M 5.04324776785714 4.65071614583333  C 5.25251116071429 4.8623046875  5.35714285714286 5.11762152777778  5.35714285714286 5.41666666666667  C 5.35714285714286 5.71571180555556  5.25251116071429 5.97102864583333  5.04324776785714 6.1826171875  C 4.833984375 6.39420572916667  4.58147321428571 6.5  4.28571428571429 6.5  C 3.98995535714286 6.5  3.73744419642857 6.39420572916667  3.52818080357143 6.1826171875  C 3.31891741071429 5.97102864583333  3.21428571428571 5.71571180555556  3.21428571428571 5.41666666666667  C 3.21428571428571 5.11762152777778  3.31891741071429 4.8623046875  3.52818080357143 4.65071614583333  C 3.73744419642857 4.43912760416667  3.98995535714286 4.33333333333333  4.28571428571429 4.33333333333333  C 4.58147321428571 4.33333333333333  4.833984375 4.43912760416667  5.04324776785714 4.65071614583333  Z M 8.25753348214286 4.65071614583333  C 8.466796875 4.8623046875  8.57142857142857 5.11762152777778  8.57142857142857 5.41666666666667  C 8.57142857142857 5.71571180555556  8.466796875 5.97102864583333  8.25753348214286 6.1826171875  C 8.04827008928572 6.39420572916667  7.79575892857143 6.5  7.5 6.5  C 7.20424107142857 6.5  6.95172991071429 6.39420572916667  6.74246651785714 6.1826171875  C 6.533203125 5.97102864583333  6.42857142857143 5.71571180555556  6.42857142857143 5.41666666666667  C 6.42857142857143 5.11762152777778  6.533203125 4.8623046875  6.74246651785714 4.65071614583333  C 6.95172991071429 4.43912760416667  7.20424107142857 4.33333333333333  7.5 4.33333333333333  C 7.79575892857143 4.33333333333333  8.04827008928572 4.43912760416667  8.25753348214286 4.65071614583333  Z M 11.4718191964286 4.65071614583333  C 11.6810825892857 4.8623046875  11.7857142857143 5.11762152777778  11.7857142857143 5.41666666666667  C 11.7857142857143 5.71571180555556  11.6810825892857 5.97102864583333  11.4718191964286 6.1826171875  C 11.2625558035714 6.39420572916667  11.0100446428571 6.5  10.7142857142857 6.5  C 10.4185267857143 6.5  10.166015625 6.39420572916667  9.95675223214286 6.1826171875  C 9.74748883928572 5.97102864583333  9.64285714285714 5.71571180555556  9.64285714285714 5.41666666666667  C 9.64285714285714 5.11762152777778  9.74748883928572 4.8623046875  9.95675223214286 4.65071614583333  C 10.166015625 4.43912760416667  10.4185267857143 4.33333333333333  10.7142857142857 4.33333333333333  C 11.0100446428571 4.33333333333333  11.2625558035714 4.43912760416667  11.4718191964286 4.65071614583333  Z M 10.693359375 1.67154947916667  C 9.70284598214286 1.27940538194444  8.63839285714286 1.08333333333333  7.5 1.08333333333333  C 6.36160714285714 1.08333333333333  5.29715401785714 1.27940538194444  4.306640625 1.67154947916667  C 3.31612723214286 2.06369357638889  2.529296875 2.59266493055555  1.94614955357143 3.25846354166667  C 1.36300223214286 3.92426215277778  1.07142857142857 4.64366319444444  1.07142857142857 5.41666666666667  C 1.07142857142857 6.04861111111111  1.27092633928571 6.65093315972222  1.669921875 7.2236328125  C 2.06891741071429 7.79633246527778  2.63113839285714 8.29144965277778  3.35658482142857 8.708984375  L 4.08482142857143 9.13216145833333  L 3.85881696428571 9.94466145833333  C 3.72488839285714 10.4581163194444  3.52957589285714 10.943359375  3.27287946428571 11.400390625  C 4.12109375 11.044921875  4.88839285714286 10.5625  5.57477678571429 9.953125  L 5.93470982142857 9.63151041666667  L 6.41183035714286 9.68229166666667  C 6.796875 9.72743055555556  7.15959821428571 9.75  7.5 9.75  C 8.63839285714286 9.75  9.70284598214286 9.55392795138889  10.693359375 9.16178385416667  C 11.6838727678571 8.76963975694444  12.470703125 8.24066840277778  13.0538504464286 7.57486979166667  C 13.6369977678571 6.90907118055556  13.9285714285714 6.18967013888889  13.9285714285714 5.41666666666667  C 13.9285714285714 4.64366319444444  13.6369977678571 3.92426215277778  13.0538504464286 3.25846354166667  C 12.470703125 2.59266493055555  11.6838727678571 2.06369357638889  10.693359375 1.67154947916667  Z M 14.4056919642857 3.3134765625  C 14.8018973214286 3.98209635416667  15 4.68315972222222  15 5.41666666666667  C 15 6.3984375  14.6651785714286 7.30544704861111  13.9955357142857 8.1376953125  C 13.3258928571429 8.96994357638889  12.4162946428571 9.62727864583333  11.2667410714286 10.1097005208333  C 10.1171875 10.5921223958333  8.86160714285714 10.8333333333333  7.5 10.8333333333333  C 7.109375 10.8333333333333  6.70479910714286 10.8107638888889  6.28627232142857 10.765625  C 5.18136160714286 11.7530381944444  3.89787946428571 12.4357638888889  2.43582589285714 12.8138020833333  C 2.16238839285714 12.8927951388889  1.84430803571429 12.9548611111111  1.48158482142857 13  L 1.43973214285714 13  C 1.35602678571429 13  1.28069196428571 12.9703776041667  1.21372767857143 12.9111328125  C 1.14676339285714 12.8518880208333  1.10212053571429 12.7743055555556  1.07979910714286 12.6783854166667  L 1.07979910714286 12.669921875  C 1.06305803571429 12.6473524305556  1.06166294642857 12.6134982638889  1.07561383928571 12.568359375  C 1.08956473214286 12.5232204861111  1.09514508928571 12.4950086805556  1.09235491071429 12.4837239583333  C 1.08956473214286 12.4724392361111  1.10212053571429 12.4456380208333  1.13002232142857 12.4033203125  L 1.18024553571429 12.3271484375  C 1.18024553571429 12.3271484375  1.19977678571429 12.3031684027778  1.23883928571429 12.2552083333333  C 1.27790178571429 12.2072482638889  1.30022321428571 12.1818576388889  1.30580357142857 12.1790364583333  C 1.34486607142857 12.1338975694444  1.43136160714286 12.0365668402778  1.56529017857143 11.8870442708333  C 1.69921875 11.7375217013889  1.79547991071429 11.6303168402778  1.85407366071429 11.5654296875  C 1.91266741071429 11.5005425347222  1.99916294642857 11.3891059027778  2.11356026785714 11.2311197916667  C 2.22795758928571 11.0731336805556  2.31863839285714 10.9292534722222  2.38560267857143 10.7994791666667  C 2.45256696428571 10.6697048611111  2.52790178571429 10.5032552083333  2.61160714285714 10.3001302083333  C 2.6953125 10.0970052083333  2.76785714285714 9.88259548611111  2.82924107142857 9.65690104166667  C 1.953125 9.15473090277778  1.26255580357143 8.53407118055556  0.757533482142857 7.794921875  C 0.252511160714286 7.05577256944444  0 6.26302083333333  0 5.41666666666667  C 0 4.68315972222222  0.198102678571429 3.98209635416667  0.594308035714286 3.3134765625  C 0.990513392857143 2.64485677083333  1.5234375 2.06792534722222  2.19308035714286 1.58268229166667  C 2.86272321428571 1.09743923611111  3.66071428571429 0.712348090277776  4.58705357142857 0.427408854166666  C 5.51339285714286 0.142469618055555  6.484375 0  7.5 0  C 8.515625 0  9.48660714285714 0.142469618055555  10.4129464285714 0.427408854166666  C 11.3392857142857 0.712348090277776  12.1372767857143 1.09743923611111  12.8069196428571 1.58268229166667  C 13.4765625 2.06792534722222  14.0094866071429 2.64485677083333  14.4056919642857 3.3134765625  Z " fill-rule="nonzero" fill="#aeaeae" stroke="none" transform="matrix(1 0 0 1 269 414 )" />
  </g>
</svg>